<svg xmlns="http://www.w3.org/2000/svg" viewBox="0 0 72 84" aria-hidden="true">
  <g transform="translate(2 2) skewX(-5)">
    <path
      fill="#D92323"
      d="M4 4h24c13.5 0 22 5.8 22 16.2 0 7.2-3.8 12.6-11.5 14.2 8.1 1.6 13.9 7.5 13.9 16.8 0 12.2-9.5 19.8-24.8 19.8H4V4zm11.5 11.2v17.2h7.8c5.2 0 8-2.2 8-8.4 0-5.6-2.9-8.8-8.8-8.8h-7zm0 28.6v19.6h8.6c6.2 0 9.8-2.8 9.8-9.6 0-6.6-3.8-10-10.4-10h-8z"
    />
    <path
      fill="#ECEFF4"
      d="M29.5 9.5 L35 10.2 L24.2 38.5 H34.8 L22.2 74.5 L31 44.8 H21.8 L32.5 9.5 z"
    />
  </g>
</svg>
